ffmpeg started on 2025-06-07 at 14:55:19
Report written to "D:\Convert\FFMetrics\reports\psnr_report-6.txt"
Log level: 32
Command line:
ffmpeg -hide_banner -nostdin -i "G:\\\xc0\xed\xe8\xec\xe5\\\xce\xed\xe3\xee\xe8\xed\xe3\xe8\\!_36_\xce\xf1\xe5\xed\xfc_2024\\DreamCast\\\xd1\xee\xe1\xeb\xe0\xe7\xed 2,5-\xec\xe5\xf0\xed\xee\xe3\xee \xe8\xe7\xec\xe5\xf0\xe5\xed\xe8\xff\\[DC] 2-5 Jigen no Ririsa - 02_Telegram_HEVC.mkv" -i "G:\\\xc0\xed\xe8\xec\xe5\\\xce\xed\xe3\xee\xe8\xed\xe3\xe8\\!_36_\xce\xf1\xe5\xed\xfc_2024\\DreamCast\\\xd1\xee\xe1\xeb\xe0\xe7\xed 2,5-\xec\xe5\xf0\xed\xee\xe3\xee \xe8\xe7\xec\xe5\xf0\xe5\xed\xe8\xff\\[DC] 2-5 Jigen no Ririsa - 02_Telegram.mp4" -lavfi "[0:v]settb=AVTB,setpts=PTS-STARTPTS,format=pix_fmts=yuv420p10,fps=24000/1001,scale=1920:1080:flags=bicubic[main];[1:v]settb=AVTB,setpts=PTS-STARTPTS,format=pix_fmts=yuv420p,fps=24000/1001,scale=1920:1080:flags=bicubic[ref];[main][ref]psnr=eof_action=endall:stats_file='D\\:/Convert/FFMetrics/logs/psnr_logfile-6.txt'" -f null -
Input #0, matroska,webm, from 'G:\Аниме\Онгоинги\!_36_Осень_2024\DreamCast\Соблазн 2,5-мерного измерения\[DC] 2-5 Jigen no Ririsa - 02_Telegram_HEVC.mkv':
  Metadata:
    COMPATIBLE_BRANDS: isomiso2avc1mp41
    MAJOR_BRAND     : isom
    MINOR_VERSION   : 512
    ENCODER         : Lavf61.7.100
  Duration: 00:24:08.11, start: -0.021000, bitrate: 1054 kb/s
  Stream #0:0: Video: hevc (Main 10), yuv420p10le(tv, bt709, progressive), 1920x1080 [SAR 1:1 DAR 16:9], 23.98 fps, 23.98 tbr, 1k tbn (default)
      Metadata:
        HANDLER_NAME    : VideoHandler
        VENDOR_ID       : [0][0][0][0]
        ENCODER         : Lavc61.19.100 libx265
        BPS             : 858007
        DURATION        : 00:24:06.569708333
        NUMBER_OF_FRAMES: 34683
        NUMBER_OF_BYTES : 155145850
        _STATISTICS_WRITING_APP: mkvpropedit v66.0.0 ('Josie') 64-bit
        _STATISTICS_WRITING_DATE_UTC: 2025-06-04 09:32:45
        _STATISTICS_TAGS: BPS DURATION NUMBER_OF_FRAMES NUMBER_OF_BYTES
  Stream #0:1: Audio: aac (LC), 48000 Hz, stereo, fltp (default)
      Metadata:
        HANDLER_NAME    : SoundHandler
        VENDOR_ID       : [0][0][0][0]
        ENCODER         : Lavc61.19.100 aac
        BPS             : 193658
        DURATION        : 00:24:08.106000000
        NUMBER_OF_FRAMES: 67881
        NUMBER_OF_BYTES : 35054748
        _STATISTICS_WRITING_APP: mkvpropedit v66.0.0 ('Josie') 64-bit
        _STATISTICS_WRITING_DATE_UTC: 2025-06-04 09:32:45
        _STATISTICS_TAGS: BPS DURATION NUMBER_OF_FRAMES NUMBER_OF_BYTES
Input #1, mov,mp4,m4a,3gp,3g2,mj2, from 'G:\Аниме\Онгоинги\!_36_Осень_2024\DreamCast\Соблазн 2,5-мерного измерения\[DC] 2-5 Jigen no Ririsa - 02_Telegram.mp4':
  Metadata:
    major_brand     : isom
    minor_version   : 512
    compatible_brands: isomiso2avc1mp41
    encoder         : Lavf61.1.100
  Duration: 00:24:08.05, start: 0.000000, bitrate: 3796 kb/s
  Stream #1:0[0x1](und): Video: h264 (High) (avc1 / 0x31637661), yuv420p(tv, bt709, progressive), 1920x1080 [SAR 1:1 DAR 16:9], 3652 kb/s, 23.98 fps, 23.98 tbr, 24k tbn (default)
      Metadata:
        handler_name    : VideoHandler
        vendor_id       : [0][0][0][0]
        encoder         : Lavc61.3.100 h264_qsv
  Stream #1:1[0x2](und): Audio: aac (HE-AACv2) (mp4a / 0x6134706D), 48000 Hz, stereo, fltp, 144 kb/s (default)
      Metadata:
        handler_name    : SoundHandler
        vendor_id       : [0][0][0][0]
Stream mapping:
  Stream #0:0 (hevc) -> settb:default
  Stream #1:0 (h264) -> settb:default
  psnr:default -> Stream #0:0 (wrapped_avframe)
  Stream #0:1 -> #0:1 (aac (native) -> pcm_s16le (native))
Output #0, null, to 'pipe:':
  Metadata:
    COMPATIBLE_BRANDS: isomiso2avc1mp41
    MAJOR_BRAND     : isom
    MINOR_VERSION   : 512
    encoder         : Lavf61.7.100
  Stream #0:0: Video: wrapped_avframe, yuv420p10le(tv, bt709, progressive), 1920x1080 [SAR 1:1 DAR 16:9], q=2-31, 200 kb/s, 23.98 fps, 23.98 tbn
      Metadata:
        encoder         : Lavc61.19.100 wrapped_avframe
  Stream #0:1: Audio: pcm_s16le, 48000 Hz, stereo, s16, 1536 kb/s (default)
      Metadata:
        HANDLER_NAME    : SoundHandler
        VENDOR_ID       : [0][0][0][0]
        _STATISTICS_TAGS: BPS DURATION NUMBER_OF_FRAMES NUMBER_OF_BYTES
        BPS             : 193658
        DURATION        : 00:24:08.106000000
        NUMBER_OF_FRAMES: 67881
        NUMBER_OF_BYTES : 35054748
        _STATISTICS_WRITING_APP: mkvpropedit v66.0.0 ('Josie') 64-bit
        _STATISTICS_WRITING_DATE_UTC: 2025-06-04 09:32:45
        encoder         : Lavc61.19.100 pcm_s16le
frame=  170 fps=0.0 q=-0.0 size=N/A time=00:00:07.09 bitrate=N/A speed=13.9x    frame=  422 fps=408 q=-0.0 size=N/A time=00:00:17.60 bitrate=N/A speed=  17x    frame=  691 fps=447 q=-0.0 size=N/A time=00:00:28.82 bitrate=N/A speed=18.7x    frame=  955 fps=465 q=-0.0 size=N/A time=00:00:39.83 bitrate=N/A speed=19.4x    frame= 1194 fps=462 q=-0.0 size=N/A time=00:00:49.79 bitrate=N/A speed=19.3x    frame= 1394 fps=451 q=-0.0 size=N/A time=00:00:58.14 bitrate=N/A speed=18.8x    frame= 1595 fps=443 q=-0.0 size=N/A time=00:01:06.52 bitrate=N/A speed=18.5x    frame= 1805 fps=438 q=-0.0 size=N/A time=00:01:15.28 bitrate=N/A speed=18.3x    frame= 1996 fps=431 q=-0.0 size=N/A time=00:01:23.24 bitrate=N/A speed=  18x    frame= 2167 fps=421 q=-0.0 size=N/A time=00:01:30.38 bitrate=N/A speed=17.6x    frame= 2402 fps=424 q=-0.0 size=N/A time=00:01:40.18 bitrate=N/A speed=17.7x    frame= 2587 fps=419 q=-0.0 size=N/A time=00:01:47.89 bitrate=N/A speed=17.5x    frame= 2793 fps=417 q=-0.0 size=N/A time=00:01:56.49 bitrate=N/A speed=17.4x    frame= 2985 fps=413 q=-0.0 size=N/A time=00:02:04.49 bitrate=N/A speed=17.2x    frame= 3175 fps=411 q=-0.0 size=N/A time=00:02:12.42 bitrate=N/A speed=17.1x    frame= 3405 fps=413 q=-0.0 size=N/A time=00:02:22.01 bitrate=N/A speed=17.2x    frame= 3642 fps=416 q=-0.0 size=N/A time=00:02:31.90 bitrate=N/A speed=17.3x    frame= 3908 fps=421 q=-0.0 size=N/A time=00:02:42.99 bitrate=N/A speed=17.6x    frame= 4180 fps=427 q=-0.0 size=N/A time=00:02:54.34 bitrate=N/A speed=17.8x    frame= 4445 fps=431 q=-0.0 size=N/A time=00:03:05.39 bitrate=N/A speed=  18x    frame= 4671 fps=431 q=-0.0 size=N/A time=00:03:14.81 bitrate=N/A speed=  18x    frame= 4923 fps=434 q=-0.0 size=N/A time=00:03:25.33 bitrate=N/A speed=18.1x    frame= 5180 fps=437 q=-0.0 size=N/A time=00:03:36.04 bitrate=N/A speed=18.2x    frame= 5402 fps=437 q=-0.0 size=N/A time=00:03:45.30 bitrate=N/A speed=18.2x    frame= 5674 fps=440 q=-0.0 size=N/A time=00:03:56.65 bitrate=N/A speed=18.4x    frame= 5941 fps=443 q=-0.0 size=N/A time=00:04:07.78 bitrate=N/A speed=18.5x    frame= 6151 fps=442 q=-0.0 size=N/A time=00:04:16.54 bitrate=N/A speed=18.4x    frame= 6390 fps=443 q=-0.0 size=N/A time=00:04:26.51 bitrate=N/A speed=18.5x    frame= 6644 fps=445 q=-0.0 size=N/A time=00:04:37.11 bitrate=N/A speed=18.5x    frame= 6898 fps=446 q=-0.0 size=N/A time=00:04:47.70 bitrate=N/A speed=18.6x    frame= 7162 fps=448 q=-0.0 size=N/A time=00:04:58.71 bitrate=N/A speed=18.7x    frame= 7426 fps=450 q=-0.0 size=N/A time=00:05:09.72 bitrate=N/A speed=18.8x    frame= 7704 fps=453 q=-0.0 size=N/A time=00:05:21.32 bitrate=N/A speed=18.9x    frame= 7965 fps=454 q=-0.0 size=N/A time=00:05:32.20 bitrate=N/A speed=  19x    frame= 8247 fps=457 q=-0.0 size=N/A time=00:05:43.96 bitrate=N/A speed=19.1x    frame= 8518 fps=459 q=-0.0 size=N/A time=00:05:55.27 bitrate=N/A speed=19.1x    frame= 8752 fps=459 q=-0.0 size=N/A time=00:06:05.07 bitrate=N/A speed=19.1x    frame= 9015 fps=460 q=-0.0 size=N/A time=00:06:16.00 bitrate=N/A speed=19.2x    frame= 9271 fps=461 q=-0.0 size=N/A time=00:06:26.67 bitrate=N/A speed=19.2x    frame= 9518 fps=461 q=-0.0 size=N/A time=00:06:36.97 bitrate=N/A speed=19.2x    frame= 9771 fps=462 q=-0.0 size=N/A time=00:06:47.53 bitrate=N/A speed=19.3x    frame=10041 fps=463 q=-0.0 size=N/A time=00:06:58.79 bitrate=N/A speed=19.3x    frame=10301 fps=464 q=-0.0 size=N/A time=00:07:09.63 bitrate=N/A speed=19.4x    frame=10570 fps=466 q=-0.0 size=N/A time=00:07:20.85 bitrate=N/A speed=19.4x    frame=10835 fps=467 q=-0.0 size=N/A time=00:07:31.90 bitrate=N/A speed=19.5x    frame=11079 fps=467 q=-0.0 size=N/A time=00:07:42.08 bitrate=N/A speed=19.5x    frame=11318 fps=467 q=-0.0 size=N/A time=00:07:52.05 bitrate=N/A speed=19.5x    frame=11526 fps=465 q=-0.0 size=N/A time=00:08:00.73 bitrate=N/A speed=19.4x    frame=11760 fps=465 q=-0.0 size=N/A time=00:08:10.49 bitrate=N/A speed=19.4x    frame=12026 fps=466 q=-0.0 size=N/A time=00:08:21.58 bitrate=N/A speed=19.4x    frame=12294 fps=467 q=-0.0 size=N/A time=00:08:32.76 bitrate=N/A speed=19.5x    frame=12510 fps=466 q=-0.0 size=N/A time=00:08:41.77 bitrate=N/A speed=19.4x    frame=12742 fps=466 q=-0.0 size=N/A time=00:08:51.44 bitrate=N/A speed=19.4x    frame=13002 fps=467 q=-0.0 size=N/A time=00:09:02.29 bitrate=N/A speed=19.5x    frame=13285 fps=468 q=-0.0 size=N/A time=00:09:14.09 bitrate=N/A speed=19.5x    frame=13549 fps=469 q=-0.0 size=N/A time=00:09:25.10 bitrate=N/A speed=19.6x    frame=13797 fps=469 q=-0.0 size=N/A time=00:09:35.44 bitrate=N/A speed=19.6x    frame=14059 fps=470 q=-0.0 size=N/A time=00:09:46.37 bitrate=N/A speed=19.6x    frame=14317 fps=470 q=-0.0 size=N/A time=00:09:57.13 bitrate=N/A speed=19.6x    frame=14561 fps=471 q=-0.0 size=N/A time=00:10:07.31 bitrate=N/A speed=19.6x    frame=14780 fps=470 q=-0.0 size=N/A time=00:10:16.44 bitrate=N/A speed=19.6x    frame=15038 fps=470 q=-0.0 size=N/A time=00:10:27.20 bitrate=N/A speed=19.6x    frame=15285 fps=470 q=-0.0 size=N/A time=00:10:37.51 bitrate=N/A speed=19.6x    frame=15527 fps=470 q=-0.0 size=N/A time=00:10:47.60 bitrate=N/A speed=19.6x    frame=15802 fps=471 q=-0.0 size=N/A time=00:10:59.07 bitrate=N/A speed=19.6x    frame=16068 fps=472 q=-0.0 size=N/A time=00:11:10.16 bitrate=N/A speed=19.7x    frame=16347 fps=473 q=-0.0 size=N/A time=00:11:21.80 bitrate=N/A speed=19.7x    frame=16616 fps=474 q=-0.0 size=N/A time=00:11:33.02 bitrate=N/A speed=19.8x    frame=16847 fps=473 q=-0.0 size=N/A time=00:11:42.66 bitrate=N/A speed=19.7x    frame=17093 fps=473 q=-0.0 size=N/A time=00:11:52.92 bitrate=N/A speed=19.7x    frame=17330 fps=473 q=-0.0 size=N/A time=00:12:02.80 bitrate=N/A speed=19.7x    frame=17574 fps=473 q=-0.0 size=N/A time=00:12:12.98 bitrate=N/A speed=19.7x    frame=17821 fps=473 q=-0.0 size=N/A time=00:12:23.28 bitrate=N/A speed=19.7x    frame=18085 fps=474 q=-0.0 size=N/A time=00:12:34.29 bitrate=N/A speed=19.8x    frame=18348 fps=474 q=-0.0 size=N/A time=00:12:45.26 bitrate=N/A speed=19.8x    frame=18596 fps=474 q=-0.0 size=N/A time=00:12:55.60 bitrate=N/A speed=19.8x    frame=18854 fps=475 q=-0.0 size=N/A time=00:13:06.36 bitrate=N/A speed=19.8x    frame=19120 fps=475 q=-0.0 size=N/A time=00:13:17.46 bitrate=N/A speed=19.8x    frame=19384 fps=476 q=-0.0 size=N/A time=00:13:28.47 bitrate=N/A speed=19.8x    frame=19677 fps=477 q=-0.0 size=N/A time=00:13:40.69 bitrate=N/A speed=19.9x    frame=19931 fps=477 q=-0.0 size=N/A time=00:13:51.28 bitrate=N/A speed=19.9x    frame=20191 fps=477 q=-0.0 size=N/A time=00:14:02.13 bitrate=N/A speed=19.9x    frame=20458 fps=478 q=-0.0 size=N/A time=00:14:13.26 bitrate=N/A speed=19.9x    frame=20647 fps=476 q=-0.0 size=N/A time=00:14:21.15 bitrate=N/A speed=19.9x    frame=20875 fps=476 q=-0.0 size=N/A time=00:14:30.66 bitrate=N/A speed=19.9x    frame=21144 fps=476 q=-0.0 size=N/A time=00:14:41.88 bitrate=N/A speed=19.9x    frame=21406 fps=477 q=-0.0 size=N/A time=00:14:52.80 bitrate=N/A speed=19.9x    frame=21651 fps=477 q=-0.0 size=N/A time=00:15:03.02 bitrate=N/A speed=19.9x    frame=21905 fps=477 q=-0.0 size=N/A time=00:15:13.66 bitrate=N/A speed=19.9x    frame=22150 fps=477 q=-0.0 size=N/A time=00:15:23.83 bitrate=N/A speed=19.9x    frame=22396 fps=477 q=-0.0 size=N/A time=00:15:34.09 bitrate=N/A speed=19.9x    frame=22658 fps=477 q=-0.0 size=N/A time=00:15:45.02 bitrate=N/A speed=19.9x    frame=22888 fps=477 q=-0.0 size=N/A time=00:15:54.62 bitrate=N/A speed=19.9x    frame=23144 fps=477 q=-0.0 size=N/A time=00:16:05.29 bitrate=N/A speed=19.9x    frame=23346 fps=476 q=-0.0 size=N/A time=00:16:13.72 bitrate=N/A speed=19.9x    frame=23605 fps=477 q=-0.0 size=N/A time=00:16:24.52 bitrate=N/A speed=19.9x    frame=23872 fps=477 q=-0.0 size=N/A time=00:16:35.66 bitrate=N/A speed=19.9x    frame=24141 fps=477 q=-0.0 size=N/A time=00:16:46.88 bitrate=N/A speed=19.9x    frame=24348 fps=477 q=-0.0 size=N/A time=00:16:55.51 bitrate=N/A speed=19.9x    frame=24616 fps=477 q=-0.0 size=N/A time=00:17:06.69 bitrate=N/A speed=19.9x    frame=24856 fps=477 q=-0.0 size=N/A time=00:17:16.70 bitrate=N/A speed=19.9x    frame=25128 fps=478 q=-0.0 size=N/A time=00:17:28.04 bitrate=N/A speed=19.9x    frame=25408 fps=478 q=-0.0 size=N/A time=00:17:39.72 bitrate=N/A speed=19.9x    frame=25671 fps=478 q=-0.0 size=N/A time=00:17:50.69 bitrate=N/A speed=  20x    frame=25926 fps=479 q=-0.0 size=N/A time=00:18:01.33 bitrate=N/A speed=  20x    frame=26189 fps=479 q=-0.0 size=N/A time=00:18:12.29 bitrate=N/A speed=  20x    frame=26469 fps=480 q=-0.0 size=N/A time=00:18:23.97 bitrate=N/A speed=  20x    frame=26726 fps=480 q=-0.0 size=N/A time=00:18:34.69 bitrate=N/A speed=  20x    frame=26971 fps=480 q=-0.0 size=N/A time=00:18:44.91 bitrate=N/A speed=  20x    frame=27207 fps=479 q=-0.0 size=N/A time=00:18:54.75 bitrate=N/A speed=  20x    frame=27461 fps=480 q=-0.0 size=N/A time=00:19:05.35 bitrate=N/A speed=  20x    frame=27722 fps=480 q=-0.0 size=N/A time=00:19:16.23 bitrate=N/A speed=  20x    frame=27979 fps=480 q=-0.0 size=N/A time=00:19:26.95 bitrate=N/A speed=  20x    frame=28228 fps=480 q=-0.0 size=N/A time=00:19:37.34 bitrate=N/A speed=  20x    frame=28477 fps=480 q=-0.0 size=N/A time=00:19:47.72 bitrate=N/A speed=  20x    frame=28711 fps=480 q=-0.0 size=N/A time=00:19:57.48 bitrate=N/A speed=  20x    frame=28989 fps=480 q=-0.0 size=N/A time=00:20:09.08 bitrate=N/A speed=  20x    frame=29185 fps=479 q=-0.0 size=N/A time=00:20:17.25 bitrate=N/A speed=  20x    frame=29365 fps=478 q=-0.0 size=N/A time=00:20:24.76 bitrate=N/A speed=  20x    frame=29549 fps=477 q=-0.0 size=N/A time=00:20:32.43 bitrate=N/A speed=19.9x    frame=29778 fps=477 q=-0.0 size=N/A time=00:20:41.99 bitrate=N/A speed=19.9x    frame=30049 fps=477 q=-0.0 size=N/A time=00:20:53.29 bitrate=N/A speed=19.9x    frame=30300 fps=478 q=-0.0 size=N/A time=00:21:03.76 bitrate=N/A speed=19.9x    frame=30544 fps=477 q=-0.0 size=N/A time=00:21:13.93 bitrate=N/A speed=19.9x    frame=30805 fps=478 q=-0.0 size=N/A time=00:21:24.82 bitrate=N/A speed=19.9x    frame=31081 fps=478 q=-0.0 size=N/A time=00:21:36.33 bitrate=N/A speed=19.9x    frame=31352 fps=479 q=-0.0 size=N/A time=00:21:47.63 bitrate=N/A speed=  20x    frame=31607 fps=479 q=-0.0 size=N/A time=00:21:58.27 bitrate=N/A speed=  20x    frame=31870 fps=479 q=-0.0 size=N/A time=00:22:09.24 bitrate=N/A speed=  20x    frame=32092 fps=479 q=-0.0 size=N/A time=00:22:18.50 bitrate=N/A speed=  20x    frame=32361 fps=479 q=-0.0 size=N/A time=00:22:29.72 bitrate=N/A speed=  20x    frame=32590 fps=479 q=-0.0 size=N/A time=00:22:39.27 bitrate=N/A speed=  20x    frame=32792 fps=478 q=-0.0 size=N/A time=00:22:47.69 bitrate=N/A speed=19.9x    frame=32970 fps=477 q=-0.0 size=N/A time=00:22:55.12 bitrate=N/A speed=19.9x    frame=33165 fps=476 q=-0.0 size=N/A time=00:23:03.25 bitrate=N/A speed=19.9x    frame=33352 fps=475 q=-0.0 size=N/A time=00:23:11.05 bitrate=N/A speed=19.8x    frame=33532 fps=475 q=-0.0 size=N/A time=00:23:18.56 bitrate=N/A speed=19.8x    frame=33760 fps=474 q=-0.0 size=N/A time=00:23:28.07 bitrate=N/A speed=19.8x    frame=33970 fps=474 q=-0.0 size=N/A time=00:23:36.83 bitrate=N/A speed=19.8x    frame=34160 fps=473 q=-0.0 size=N/A time=00:23:44.75 bitrate=N/A speed=19.7x    frame=34331 fps=472 q=-0.0 size=N/A time=00:23:51.88 bitrate=N/A speed=19.7x    frame=34516 fps=471 q=-0.0 size=N/A time=00:23:59.60 bitrate=N/A speed=19.7x    [Parsed_psnr_10 @ 00000245e7c7bc40] PSNR y:48.463258 u:50.926014 v:50.432454 average:49.082539 min:38.603232 max:inf
[out#0/null @ 00000245e7344780] video:14903KiB audio:271524KiB subtitle:0KiB other streams:0KiB global headers:0KiB muxing overhead: unknown
frame=34683 fps=472 q=-0.0 Lsize=N/A time=00:24:06.57 bitrate=N/A speed=19.7x    
